<svg width="73" height="73" viewBox="0 0 73 73" fill="none" xmlns="http://www.w3.org/2000/svg">
<circle cx="36.5" cy="36.5" r="35.9427" stroke="#FF9500" stroke-width="1.1145" stroke-dasharray="5.57 2.79"/>
<path fill-rule="evenodd" clip-rule="evenodd" d="M36.7786 53.3566C37.0926 53.3566 37.3938 53.2318 37.6159 53.0098C37.838 52.7877 37.9627 52.4865 37.9627 52.1724L37.9627 24.2428L45.4135 31.6959C45.5236 31.806 45.6543 31.8934 45.7981 31.953C45.942 32.0125 46.0961 32.0432 46.2518 32.0432C46.4075 32.0432 46.5617 32.0125 46.7056 31.953C46.8494 31.8934 46.9801 31.806 47.0902 31.6959C47.2003 31.5858 47.2877 31.4551 47.3472 31.3113C47.4068 31.1674 47.4375 31.0133 47.4375 30.8576C47.4375 30.7019 47.4068 30.5477 47.3472 30.4038C47.2877 30.26 47.2003 30.1293 47.0902 30.0192L37.6169 20.5459C37.5069 20.4356 37.3763 20.3481 37.2324 20.2884C37.0885 20.2287 36.9343 20.198 36.7786 20.198C36.6228 20.198 36.4686 20.2287 36.3247 20.2884C36.1808 20.3481 36.0502 20.4356 35.9402 20.5459L26.4669 30.0192C26.3568 30.1293 26.2695 30.26 26.2099 30.4038C26.1503 30.5477 26.1196 30.7019 26.1196 30.8576C26.1196 31.0133 26.1503 31.1674 26.2099 31.3113C26.2695 31.4551 26.3568 31.5858 26.4669 31.6959C26.577 31.806 26.7077 31.8934 26.8515 31.953C26.9954 32.0125 27.1496 32.0432 27.3053 32.0432C27.461 32.0432 27.6152 32.0125 27.759 31.953C27.9029 31.8934 28.0336 31.806 28.1437 31.6959L35.5944 24.2428L35.5944 52.1724C35.5944 52.4865 35.7192 52.7877 35.9412 53.0098C36.1633 53.2318 36.4645 53.3566 36.7786 53.3566Z" fill="#FF9500"/>
</svg>
